<svg xmlns="http://www.w3.org/2000/svg" width="64" height="64" viewBox="0 0 64 64" fill="none">
  <defs>
    <linearGradient id="g" x1="10" y1="6" x2="54" y2="58" gradientUnits="userSpaceOnUse">
      <stop stop-color="#6366F1"/>
      <stop offset="1" stop-color="#8B5CF6"/>
    </linearGradient>
  </defs>
  <rect x="6" y="6" width="52" height="52" rx="16" fill="url(#g)"/>
  <path d="M22 40V24h6.5c2.5 0 4.4.6 5.7 1.7 1.3 1.2 2 2.8 2 4.8 0 2-.7 3.6-2 4.8-1.3 1.1-3.2 1.7-5.7 1.7H28v3H22Zm6-7h.4c1.3 0 2.3-.2 2.9-.7.6-.5.9-1.2.9-2.1 0-.9-.3-1.6-.9-2.1-.6-.5-1.6-.7-2.9-.7H28v5.6Z" fill="white" opacity=".95"/>
  <path d="M41 24h5l-5.5 16h-5L30 24h5l3 10.2L41 24Z" fill="white" opacity=".9"/>
</svg>

